<svg xmlns="http://www.w3.org/2000/svg" viewBox="0 0 500 468.5"><defs><style>      .cls-1, .cls-2, .cls-3, .cls-4, .cls-5, .cls-6, .cls-7, .cls-8, .cls-9, .cls-10, .cls-11 {        stroke-width: 0px;      }      .cls-12 {        opacity: .2;      }      .cls-2 {        fill: #e0e0e0;      }      .cls-3 {        fill: #6f4439;      }      .cls-4 {        fill: #ae7461;      }      .cls-5 {        fill: #f5f5f5;      }      .cls-6 {        fill: #fff;      }      .cls-13 {        opacity: .3;      }      .cls-7 {        fill: #fafafa;      }      .cls-8 {        fill: #263238;      }      .cls-9 {        fill: #ebebeb;      }      .cls-10 {        fill: #455a64;      }      .cls-11 {        fill: #3e6e86;      }    </style></defs><g id="Background_Complete" data-name="Background Complete"><path class="cls-5" d="M30.71,160.76c1.39-.84,2.88-1.48,4.41-1.92l.91-4.36,7.37-.13,1.06,4.33c1.54.38,3.05.97,4.47,1.76l3.73-2.44,5.3,5.12-2.31,3.81c.84,1.39,1.48,2.88,1.92,4.41l4.36.91.13,7.37-4.33,1.06c-.38,1.54-.97,3.05-1.76,4.47l2.44,3.73-5.12,5.3-3.81-2.31c-1.39.84-2.88,1.48-4.41,1.92l-.91,4.36-7.37.13-1.06-4.33c-1.54-.38-3.05-.97-4.47-1.76l-3.73,2.44-5.3-5.12,2.31-3.81c-.84-1.39-1.48-2.88-1.92-4.41l-4.36-.91-.13-7.37,4.33-1.06c.38-1.54.97-3.05,1.76-4.47l-2.44-3.73,5.12-5.3,3.81,2.31h0ZM34.64,170.58c-3.03,3.14-2.95,8.15.2,11.18,3.14,3.03,8.15,2.95,11.18-.2,3.03-3.14,2.95-8.15-.2-11.18-3.14-3.03-8.15-2.95-11.18.2Z"></path><path class="cls-5" d="M286.14,37.2c1.19-.72,2.45-1.26,3.75-1.63l.77-3.71,6.27-.11.9,3.68c1.31.32,2.6.82,3.81,1.5l3.17-2.08,4.51,4.36-1.97,3.24c.72,1.19,1.26,2.45,1.63,3.75l3.71.77.11,6.27-3.68.9c-.32,1.31-.82,2.6-1.5,3.81l2.08,3.17-4.36,4.52-3.24-1.97c-1.19.72-2.45,1.26-3.75,1.63l-.77,3.71-6.27.11-.9-3.68c-1.31-.32-2.6-.82-3.81-1.5l-3.17,2.08-4.51-4.36,1.97-3.24c-.72-1.19-1.26-2.45-1.63-3.75l-3.71-.77-.11-6.27,3.68-.9c.32-1.31.82-2.6,1.5-3.81l-2.08-3.17,4.36-4.51,3.24,1.97h0ZM289.49,45.55c-2.58,2.68-2.51,6.94.17,9.52,2.67,2.58,6.94,2.51,9.52-.17,2.58-2.67,2.51-6.94-.17-9.52s-6.94-2.51-9.52.17Z"></path><path class="cls-5" d="M73.99,41.46c1.93-1.16,3.98-2.05,6.09-2.65l1.26-6.03,10.19-.18,1.47,5.98c2.14.53,4.22,1.34,6.18,2.43l5.15-3.38,7.33,7.08-3.19,5.27c1.16,1.93,2.05,3.98,2.65,6.1l6.03,1.26.18,10.19-5.98,1.47c-.53,2.14-1.34,4.22-2.43,6.18l3.38,5.15-7.08,7.33-5.27-3.19c-1.93,1.16-3.98,2.05-6.1,2.65l-1.26,6.03-10.19.18-1.47-5.98c-2.14-.53-4.22-1.34-6.18-2.43l-5.15,3.38-7.33-7.08,3.19-5.27c-1.16-1.93-2.05-3.98-2.65-6.1l-6.03-1.26-.18-10.19,5.98-1.47c.53-2.14,1.34-4.22,2.43-6.18l-3.38-5.15,7.08-7.33,5.27,3.19h0ZM79.43,55.04c-4.2,4.34-4.07,11.27.27,15.46,4.34,4.19,11.27,4.07,15.46-.27,4.19-4.34,4.07-11.27-.27-15.46-4.34-4.19-11.27-4.07-15.46.27Z"></path><path class="cls-5" d="M238.38,215.98c1.39-.84,2.88-1.48,4.41-1.92l.91-4.36,7.37-.13,1.06,4.33c1.54.38,3.05.97,4.47,1.76l3.73-2.44,5.3,5.12-2.31,3.81c.84,1.39,1.48,2.88,1.92,4.41l4.36.91.13,7.37-4.33,1.06c-.38,1.54-.97,3.05-1.76,4.47l2.44,3.73-5.12,5.3-3.81-2.31c-1.39.84-2.88,1.48-4.41,1.92l-.91,4.36-7.37.13-1.06-4.33c-1.54-.38-3.05-.97-4.47-1.76l-3.73,2.44-5.3-5.12,2.31-3.81c-.84-1.39-1.48-2.88-1.92-4.41l-4.36-.91-.13-7.37,4.33-1.06c.38-1.54.97-3.05,1.76-4.47l-2.44-3.73,5.12-5.3,3.81,2.31h0ZM242.31,225.8c-3.03,3.14-2.95,8.15.2,11.18,3.14,3.03,8.15,2.95,11.18-.2,3.03-3.14,2.95-8.15-.2-11.18-3.14-3.03-8.15-2.95-11.18.2Z"></path><path class="cls-5" d="M259.15,347.92c1.39-.84,2.88-1.48,4.41-1.92l.91-4.36,7.37-.13,1.06,4.33c1.54.38,3.05.97,4.47,1.76l3.73-2.44,5.3,5.12-2.31,3.81c.84,1.39,1.48,2.88,1.92,4.41l4.36.91.13,7.37-4.33,1.06c-.38,1.54-.97,3.05-1.76,4.47l2.44,3.73-5.12,5.3-3.81-2.31c-1.39.84-2.88,1.48-4.41,1.92l-.91,4.36-7.37.13-1.06-4.33c-1.54-.38-3.05-.97-4.47-1.76l-3.73,2.44-5.3-5.12,2.31-3.81c-.84-1.39-1.48-2.88-1.92-4.41l-4.36-.91-.13-7.37,4.33-1.06c.38-1.54.97-3.05,1.76-4.47l-2.44-3.73,5.12-5.3,3.81,2.31h0ZM263.08,357.74c-3.03,3.14-2.95,8.15.2,11.18,3.14,3.03,8.15,2.95,11.18-.2,3.03-3.14,2.95-8.15-.2-11.18-3.14-3.03-8.15-2.95-11.18.2Z"></path><path class="cls-5" d="M82.16,265.36c.94-.57,1.94-1,2.97-1.29l.61-2.94,4.97-.09.72,2.92c1.04.26,2.06.65,3.02,1.19l2.51-1.65,3.58,3.45-1.56,2.57c.57.94,1,1.94,1.29,2.97l2.94.61.09,4.97-2.92.72c-.26,1.04-.65,2.06-1.19,3.02l1.65,2.51-3.45,3.58-2.57-1.56c-.94.57-1.94,1-2.97,1.29l-.61,2.94-4.97.09-.72-2.92c-1.04-.26-2.06-.65-3.02-1.19l-2.51,1.65-3.58-3.45,1.56-2.57c-.57-.94-1-1.94-1.29-2.97l-2.94-.61-.09-4.97,2.92-.72c.26-1.04.65-2.06,1.19-3.02l-1.65-2.51,3.45-3.58,2.57,1.56h0ZM84.81,271.98c-2.05,2.12-1.99,5.5.13,7.54,2.12,2.05,5.5,1.99,7.54-.13,2.05-2.12,1.99-5.5-.13-7.54-2.12-2.05-5.5-1.99-7.54.13Z"></path><path class="cls-5" d="M89.54,303.66c1.71-1.04,3.54-1.82,5.42-2.35l1.12-5.36,9.06-.16,1.3,5.32c1.9.47,3.75,1.19,5.5,2.16l4.58-3,6.52,6.3-2.84,4.68c1.04,1.71,1.82,3.54,2.35,5.42l5.36,1.12.16,9.06-5.32,1.3c-.47,1.9-1.19,3.75-2.16,5.5l3,4.58-6.29,6.52-4.68-2.84c-1.71,1.04-3.54,1.82-5.42,2.35l-1.12,5.36-9.06.16-1.3-5.32c-1.9-.47-3.75-1.19-5.5-2.16l-4.58,3-6.52-6.29,2.84-4.68c-1.04-1.71-1.82-3.54-2.35-5.42l-5.36-1.12-.16-9.06,5.32-1.3c.47-1.9,1.19-3.75,2.16-5.5l-3-4.58,6.29-6.52,4.68,2.84h0ZM94.37,315.73c-3.73,3.86-3.62,10.02.24,13.75,3.86,3.73,10.02,3.62,13.75-.24,3.73-3.86,3.62-10.02-.24-13.75-3.86-3.73-10.02-3.62-13.75.24Z"></path><g><rect class="cls-2" x="341.15" y="46.08" width="137.54" height="231.75"></rect><rect class="cls-5" x="344.86" y="50.44" width="129.66" height="223.58"></rect><g><rect class="cls-6" x="409.69" y="62.38" width="51.7" height="80.22"></rect><path class="cls-2" d="M438.29,69.47c0,1.07-.86,1.93-1.93,1.93s-1.93-.86-1.93-1.93.86-1.93,1.93-1.93,1.93.86,1.93,1.93Z"></path></g><g><rect class="cls-6" x="357.58" y="164.93" width="51.7" height="80.22"></rect><path class="cls-2" d="M386.18,172.03c0,1.07-.86,1.93-1.93,1.93s-1.93-.86-1.93-1.93.86-1.93,1.93-1.93,1.93.86,1.93,1.93Z"></path></g><g><rect class="cls-6" x="356.88" y="62.38" width="44.15" height="62.65"></rect><path class="cls-2" d="M380.56,68.07c0,.89-.72,1.6-1.6,1.6s-1.6-.72-1.6-1.6.72-1.6,1.6-1.6,1.6.72,1.6,1.6Z"></path></g><g><rect class="cls-6" x="417.19" y="168.62" width="47.52" height="26.33" transform="translate(-17.6 50.58) rotate(-6.44)"></rect><circle class="cls-2" cx="440.03" cy="173.66" r="1.64"></circle></g><path class="cls-2" d="M402.38,183.23c0,.21-8.12.39-18.13.39s-18.13-.17-18.13-.39,8.12-.39,18.13-.39,18.13.17,18.13.39Z"></path><path class="cls-2" d="M402.38,188.97c0,.21-8.12.39-18.13.39s-18.13-.17-18.13-.39,8.12-.39,18.13-.39,18.13.17,18.13.39Z"></path><path class="cls-2" d="M402.38,194.71c0,.21-8.12.39-18.13.39s-18.13-.17-18.13-.39,8.12-.39,18.13-.39,18.13.17,18.13.39Z"></path><path class="cls-2" d="M402.38,200.45c0,.21-8.12.39-18.13.39s-18.13-.17-18.13-.39,8.12-.39,18.13-.39,18.13.17,18.13.39Z"></path><path class="cls-2" d="M402.38,206.19c0,.21-8.12.39-18.13.39s-18.13-.17-18.13-.39,8.12-.39,18.13-.39,18.13.17,18.13.39Z"></path><path class="cls-2" d="M402.38,211.93c0,.21-8.12.39-18.13.39s-18.13-.17-18.13-.39,8.12-.39,18.13-.39,18.13.17,18.13.39Z"></path><path class="cls-2" d="M402.38,217.67c0,.21-8.12.39-18.13.39s-18.13-.17-18.13-.39,8.12-.39,18.13-.39,18.13.17,18.13.39Z"></path><path class="cls-2" d="M458.66,177.08c.03.21-7.99,1.52-17.9,2.91-9.92,1.4-17.98,2.36-18.01,2.15-.03-.21,7.98-1.52,17.9-2.91,9.91-1.4,17.98-2.36,18.01-2.15Z"></path><path class="cls-2" d="M459.38,180.67c.03.21-7.99,1.52-17.9,2.91-9.92,1.4-17.98,2.36-18.01,2.15s7.98-1.52,17.9-2.92c9.91-1.4,17.98-2.36,18.01-2.15Z"></path><path class="cls-2" d="M460.04,183.99c.03.21-7.98,1.52-17.9,2.92-9.92,1.4-17.98,2.36-18.01,2.15-.03-.21,7.98-1.52,17.9-2.92,9.91-1.4,17.98-2.36,18.01-2.15Z"></path><path class="cls-2" d="M456.84,79.16c0,.21-9.17.39-20.48.39s-20.48-.17-20.48-.39,9.17-.39,20.48-.39,20.48.17,20.48.39Z"></path><path class="cls-2" d="M456.84,82.58c0,.21-9.17.39-20.48.39s-20.48-.17-20.48-.39,9.17-.39,20.48-.39,20.48.17,20.48.39Z"></path><path class="cls-2" d="M456.84,85.99c0,.21-9.17.39-20.48.39s-20.48-.17-20.48-.39,9.17-.39,20.48-.39,20.48.17,20.48.39Z"></path><path class="cls-2" d="M456.84,89.4c0,.21-9.17.39-20.48.39s-20.48-.17-20.48-.39,9.17-.39,20.48-.39,20.48.17,20.48.39Z"></path><path class="cls-2" d="M456.84,92.82c0,.21-9.17.39-20.48.39s-20.48-.17-20.48-.39,9.17-.39,20.48-.39,20.48.17,20.48.39Z"></path><path class="cls-2" d="M456.84,96.23c0,.21-9.17.39-20.48.39s-20.48-.17-20.48-.39,9.17-.39,20.48-.39,20.48.17,20.48.39Z"></path><path class="cls-2" d="M456.84,99.64c0,.21-9.17.39-20.48.39s-20.48-.17-20.48-.39,9.17-.39,20.48-.39,20.48.17,20.48.39Z"></path><path class="cls-2" d="M456.84,109.77c0,.21-9.17.39-20.48.39s-20.48-.17-20.48-.39,9.17-.39,20.48-.39,20.48.17,20.48.39Z"></path><path class="cls-2" d="M457.13,113.37c0,.21-9.17.39-20.48.39s-20.48-.17-20.48-.39,9.17-.39,20.48-.39,20.48.17,20.48.39Z"></path><path class="cls-2" d="M457.42,116.98c0,.21-9.17.39-20.48.39s-20.48-.17-20.48-.39,9.17-.39,20.48-.39,20.48.17,20.48.39Z"></path><path class="cls-2" d="M457.7,120.58c0,.21-9.17.39-20.48.39s-20.48-.17-20.48-.39,9.17-.39,20.48-.39,20.48.17,20.48.39Z"></path><path class="cls-2" d="M457.99,124.19c0,.21-9.17.39-20.48.39s-20.48-.17-20.48-.39,9.17-.39,20.48-.39,20.48.17,20.48.39Z"></path><path class="cls-2" d="M458.28,127.79c0,.21-9.17.39-20.48.39s-20.48-.17-20.48-.39,9.17-.38,20.48-.38,20.48.17,20.48.38Z"></path></g><g><path class="cls-5" d="M170.93,91.76h-29.64c-2.05,0-3.71-1.66-3.71-3.71v-41.02c0-2.05,1.66-3.71,3.71-3.71h18.8l14.55,15v29.73c0,2.05-1.66,3.71-3.71,3.71Z"></path><path class="cls-2" d="M137.59,77.07h37.05v10.17c0,2.5-2.03,4.53-4.53,4.53h-28c-2.5,0-4.53-2.03-4.53-4.53v-10.17h0Z"></path><g><path class="cls-7" d="M150.72,86.55l.93-1.12c.39.53.83.8,1.35.8.67,0,1.03-.4,1.03-1.2v-3.45h-2.55v-1.35h4.22v4.7c0,1.79-.9,2.67-2.61,2.67-.97,0-1.83-.37-2.36-1.06Z"></path><path class="cls-7" d="M156.69,86.96l.54-1.16c.5.32,1.25.54,1.94.54.75,0,1.03-.2,1.03-.51,0-.91-3.37.02-3.37-2.21,0-1.06.95-1.8,2.58-1.8.77,0,1.62.18,2.14.49l-.54,1.15c-.55-.31-1.1-.41-1.61-.41-.73,0-1.04.23-1.04.52,0,.95,3.37.03,3.37,2.23,0,1.04-.96,1.77-2.63,1.77-.94,0-1.9-.26-2.41-.6Z"></path></g><g><path class="cls-7" d="M145.44,69.35l1.16-1.36c.76,1.08,1.74,1.66,2.92,1.66,1.58,0,2.4-.96,2.4-2.84v-7.87h-5.07v-1.74h7.05v9.52c0,3.12-1.52,4.67-4.39,4.67-1.66,0-3.19-.72-4.09-2.02Z"></path><path class="cls-7" d="M156.38,70.09l.8-1.52c.9.64,2.34,1.1,3.73,1.1,1.78,0,2.52-.54,2.52-1.44,0-2.38-6.71-.32-6.71-4.55,0-1.9,1.7-3.18,4.43-3.18,1.38,0,2.94.36,3.87.96l-.82,1.52c-.96-.62-2.02-.84-3.06-.84-1.68,0-2.5.62-2.5,1.46,0,2.5,6.73.46,6.73,4.59,0,1.92-1.76,3.14-4.59,3.14-1.76,0-3.51-.54-4.39-1.24Z"></path></g><path class="cls-9" d="M160.09,43.33v11.55c0,1.9,1.54,3.45,3.45,3.45h11.1s-14.55-14.99-14.55-14.99Z"></path><path class="cls-2" d="M160.24,55.88s-.15,2.8,3.04,3.72c.12.03.24.06.36.08,1.45.26,10.99,1.96,10.99,1.74v-3.1h-11.1s-2.77-.09-3.3-2.44Z"></path></g></g><g id="Table"><g><polygon class="cls-10" points="15.88 445.46 68.66 409.82 324.41 408.6 336.11 446 15.88 445.46"></polygon><polygon class="cls-10" points="335.45 460.06 15.35 459.83 15.35 444.76 335.59 445.76 335.45 460.06"></polygon><path class="cls-8" d="M327.6,445.68c0,.14-69.12.23-154.37.19-85.27-.04-154.38-.19-154.38-.33,0-.14,69.11-.23,154.38-.19,85.25.04,154.37.19,154.37.33Z"></path></g></g><g id="Files"><g><g><path class="cls-11" d="M247.97,115.07h-50.25c-3.47,0-6.29-2.82-6.29-6.29V39.22c0-3.47,2.82-6.29,6.29-6.29h31.87l24.67,25.43v50.42c0,3.47-2.82,6.29-6.29,6.29Z"></path><g class="cls-12"><path class="cls-1" d="M192.67,90.15h60.35c.68,0,1.24.56,1.24,1.24v17.2c0,3.58-2.9,6.48-6.48,6.48h-49.87c-3.58,0-6.48-2.9-6.48-6.48v-17.2c0-.68.56-1.24,1.24-1.24Z"></path></g><g class="cls-12"><path class="cls-6" d="M229.59,32.94v19.58c0,3.23,2.62,5.85,5.85,5.85h18.82s-24.67-25.42-24.67-25.42Z"></path></g><g class="cls-12"><path class="cls-1" d="M229.84,54.23s-.25,4.75,5.16,6.31c.2.06.41.1.62.14,2.46.44,18.64,3.32,18.64,2.95v-5.26h-18.82s-4.7-.16-5.59-4.13Z"></path></g></g><g><path class="cls-7" d="M209.41,101.01c0-2.95,2.26-5.05,5.3-5.05,1.69,0,3.1.61,4.02,1.73l-1.45,1.34c-.66-.75-1.48-1.15-2.46-1.15-1.83,0-3.13,1.28-3.13,3.13s1.3,3.13,3.13,3.13c.98,0,1.8-.39,2.46-1.16l1.45,1.34c-.92,1.13-2.33,1.75-4.03,1.75-3.03,0-5.29-2.11-5.29-5.05Z"></path><path class="cls-7" d="M219.4,104.93l.77-1.7c.82.6,2.05,1.02,3.22,1.02,1.34,0,1.88-.45,1.88-1.05,0-1.83-5.68-.57-5.68-4.2,0-1.66,1.34-3.04,4.12-3.04,1.23,0,2.48.29,3.39.87l-.7,1.72c-.91-.52-1.84-.77-2.71-.77-1.34,0-1.86.5-1.86,1.12,0,1.8,5.68.56,5.68,4.15,0,1.63-1.35,3.03-4.15,3.03-1.55,0-3.11-.46-3.98-1.13Z"></path><path class="cls-7" d="M228.31,104.93l.77-1.7c.82.6,2.05,1.02,3.23,1.02,1.34,0,1.88-.45,1.88-1.05,0-1.83-5.68-.57-5.68-4.2,0-1.66,1.34-3.04,4.12-3.04,1.23,0,2.49.29,3.39.87l-.7,1.72c-.91-.52-1.84-.77-2.71-.77-1.34,0-1.86.5-1.86,1.12,0,1.8,5.68.56,5.68,4.15,0,1.63-1.35,3.03-4.15,3.03-1.55,0-3.11-.46-3.98-1.13Z"></path></g><g><path class="cls-7" d="M212.6,69.38c1.03.31,1.5.97,1.5,2.51v3.59c0,1.05.54,1.66,1.64,1.66h.4v2.74h-1.3c-2.81,0-4.24-1.44-4.24-4.02v-4.06c0-.72-.38-1.06-.99-1.06h-.74v-2.74h.74c.61,0,.99-.34.99-1.06v-4.06c0-2.58,1.44-4.02,4.24-4.02h1.3v2.74h-.4c-1.1,0-1.64.61-1.64,1.66v3.59c0,1.55-.47,2.2-1.5,2.51Z"></path><path class="cls-7" d="M236.81,68.01v2.74h-.74c-.61,0-.99.34-.99,1.06v4.06c0,2.58-1.44,4.02-4.24,4.02h-1.3v-2.74h.4c1.1,0,1.64-.61,1.64-1.66v-3.59c0-1.55.47-2.2,1.5-2.51-1.03-.31-1.5-.97-1.5-2.51v-3.59c0-1.06-.54-1.66-1.64-1.66h-.4v-2.74h1.3c2.81,0,4.24,1.44,4.24,4.02v4.06c0,.72.38,1.06.99,1.06h.74Z"></path></g></g><g><g><path class="cls-11" d="M318.34,165.57h-51.01c-3.53,0-6.38-2.86-6.38-6.38v-70.61c0-3.53,2.86-6.38,6.38-6.38h32.35l25.04,25.81v51.18c0,3.53-2.86,6.38-6.38,6.38Z"></path><g class="cls-12"><path class="cls-1" d="M260.95,140.27h63.78v18.4c0,3.81-3.09,6.9-6.9,6.9h-49.99c-3.81,0-6.9-3.09-6.9-6.9v-18.4h0Z"></path></g><g class="cls-12"><path class="cls-6" d="M299.68,82.19v19.87c0,3.28,2.66,5.94,5.94,5.94h19.11s-25.04-25.81-25.04-25.81Z"></path></g><g class="cls-12"><path class="cls-1" d="M299.94,103.81s-.25,4.82,5.24,6.4c.21.06.42.1.63.14,2.49.45,18.92,3.37,18.92,2.99v-5.34h-19.11s-4.77-.16-5.68-4.2Z"></path></g></g><g><path class="cls-7" d="M287.14,119.38l-7.66,2.81,7.66,2.78v2.87l-10.94-4.16v-2.99l10.94-4.16v2.85Z"></path><path class="cls-7" d="M295.37,110.87h3.2l-7.59,21.66h-3.2l7.59-21.66Z"></path><path class="cls-7" d="M309.92,120.69v2.99l-10.94,4.16v-2.87l7.66-2.78-7.66-2.81v-2.85l10.94,4.16Z"></path></g><g><path class="cls-7" d="M284.53,149.68v8.57h-1.98v-3.51h-3.89v3.51h-1.98v-8.57h1.98v3.38h3.89v-3.38h1.98Z"></path><path class="cls-7" d="M288.34,151.3h-2.74v-1.62h7.47v1.62h-2.74v6.96h-1.98v-6.96Z"></path><path class="cls-7" d="M301.93,158.25v-5.14s-2.53,4.24-2.53,4.24h-.89l-2.51-4.13v5.03h-1.86v-8.57h1.64l3.21,5.33,3.16-5.33h1.63l.02,8.57h-1.86Z"></path><path class="cls-7" d="M305.82,149.68h1.98v6.96h4.3v1.62h-6.28v-8.57Z"></path></g></g></g><g id="Windows"><g><rect class="cls-6" x="43.03" y="108.37" width="98.74" height="159.15" rx="3.06" ry="3.06"></rect><path class="cls-2" d="M46.64,108.37h91.66c1.92,0,3.47,1.56,3.47,3.47v14.31H43.03v-14.18c0-1.99,1.62-3.61,3.61-3.61Z"></path><path class="cls-8" d="M138.46,267.52s.47.04,1.27-.28c.4-.17.86-.47,1.26-.96.39-.5.72-1.2.72-2.05-.01-3.41-.03-8.41-.05-14.86-.02-12.92-.05-31.59-.08-54.66-.02-23.08-.03-50.56-.06-81.06v-1.43c0-.49,0-.93-.12-1.36-.23-.86-.88-1.6-1.69-1.96-.41-.19-.85-.28-1.31-.27h-1.45c-.97,0-1.94,0-2.92,0-3.91,0-7.86,0-11.85,0-7.99,0-16.14,0-24.44,0-16.6,0-33.79,0-51.39,0-1.02,0-2.01.53-2.57,1.38-.27.43-.45.91-.49,1.42-.03.51,0,1.08-.01,1.62,0,2.19,0,4.37,0,6.54,0,4.35,0,8.67,0,12.95,0,8.58,0,17.02,0,25.33,0,16.6-.01,32.62-.02,47.88,0,15.26-.02,29.76-.02,43.32,0,3.39,0,6.73,0,10,0,1.64,0,3.26,0,4.86-.13,1.56.99,3.01,2.46,3.31.71.13,1.54.05,2.3.07.78,0,1.55,0,2.33,0,1.54,0,3.07,0,4.58,0,3.02,0,5.97,0,8.86,0,23.07.04,41.74.06,54.66.08,6.45.02,11.45.04,14.86.05,1.69.01,2.98.02,3.86.03.87,0,1.32.03,1.32.03,0,0-.45.02-1.32.03-.88,0-2.17.01-3.86.03-3.41.01-8.41.03-14.86.05-12.91.02-31.58.05-54.66.08-2.88,0-5.84,0-8.86,0-1.51,0-3.04,0-4.58,0-.77,0-1.55,0-2.33,0-.79-.03-1.54.07-2.39-.08-.82-.17-1.57-.65-2.08-1.33-.51-.66-.76-1.55-.71-2.37,0-1.61,0-3.23,0-4.86,0-3.27,0-6.61,0-10,0-13.57-.02-28.07-.02-43.32,0-15.26,0-31.27-.02-47.88,0-8.3,0-16.75,0-25.33,0-4.29,0-8.61,0-12.95,0-2.17,0-4.35,0-6.54,0-.56-.01-1.07.01-1.66.04-.59.25-1.16.57-1.66.64-1,1.81-1.63,3-1.62,17.6,0,34.79,0,51.39,0,8.3,0,16.45,0,24.44,0,3.99,0,7.94,0,11.85,0,.98,0,1.95,0,2.92,0h1.45c.51,0,1.04.1,1.51.32.94.43,1.69,1.28,1.95,2.27.15.5.14,1.03.13,1.49v1.43c-.02,30.51-.04,57.99-.06,81.06-.03,23.07-.06,41.74-.08,54.66-.02,6.45-.04,11.45-.05,14.86,0,.87-.36,1.59-.76,2.1-.42.5-.9.8-1.31.96-.41.17-.74.2-.96.23-.22,0-.33,0-.33,0Z"></path><path class="cls-6" d="M57.59,118.65c0,1.61-1.3,2.91-2.91,2.91s-2.91-1.3-2.91-2.91,1.3-2.91,2.91-2.91,2.91,1.3,2.91,2.91Z"></path><circle class="cls-6" cx="63.64" cy="118.65" r="2.91"></circle><circle class="cls-6" cx="72.6" cy="118.65" r="2.91"></circle><path class="cls-8" d="M86,150.26h-18.18c-1.09,0-1.97-.88-1.97-1.97h0c0-1.09.88-1.97,1.97-1.97h18.18c1.09,0,1.97.88,1.97,1.97h0c0,1.09-.88,1.97-1.97,1.97Z"></path><path class="cls-2" d="M86,160.59h-18.18c-1.09,0-1.97-.88-1.97-1.97h0c0-1.09.88-1.97,1.97-1.97h18.18c1.09,0,1.97.88,1.97,1.97h0c0,1.09-.88,1.97-1.97,1.97Z"></path><path class="cls-2" d="M86.52,188.88h-18.18c-1.09,0-1.97-.88-1.97-1.97h0c0-1.09.88-1.97,1.97-1.97h18.18c1.09,0,1.97.88,1.97,1.97h0c0,1.09-.88,1.97-1.97,1.97Z"></path><path class="cls-11" d="M86,171.26h-18.18c-1.09,0-1.97-.88-1.97-1.97h0c0-1.09.88-1.97,1.97-1.97h18.18c1.09,0,1.97.88,1.97,1.97h0c0,1.09-.88,1.97-1.97,1.97Z"></path><path class="cls-11" d="M86,230.78h-18.18c-1.09,0-1.97-.88-1.97-1.97h0c0-1.09.88-1.97,1.97-1.97h18.18c1.09,0,1.97.88,1.97,1.97h0c0,1.09-.88,1.97-1.97,1.97Z"></path><path class="cls-10" d="M115.13,150.26h-18.18c-1.09,0-1.97-.88-1.97-1.97h0c0-1.09.88-1.97,1.97-1.97h18.18c1.09,0,1.97.88,1.97,1.97h0c0,1.09-.88,1.97-1.97,1.97Z"></path><path class="cls-8" d="M134.82,160.59h-38.04c-1,0-1.8-.88-1.8-1.97h0c0-1.09.81-1.97,1.8-1.97h38.04c1,0,1.8.88,1.8,1.97h0c0,1.09-.81,1.97-1.8,1.97Z"></path><path class="cls-2" d="M133.79,171.26h-38.3c-1.02,0-1.85-.88-1.85-1.97h0c0-1.09.83-1.97,1.85-1.97h38.3c1.02,0,1.85.88,1.85,1.97h0c0,1.09-.83,1.97-1.85,1.97Z"></path><path class="cls-2" d="M106.12,179.89h-38.3c-1.02,0-1.85-.88-1.85-1.97h0c0-1.09.83-1.97,1.85-1.97h38.3c1.02,0,1.85.88,1.85,1.97h0c0,1.09-.83,1.97-1.85,1.97Z"></path><path class="cls-10" d="M58.9,148.29c0,1.11-.9,2-2,2s-2-.9-2-2,.9-2,2-2,2,.9,2,2Z"></path><path class="cls-10" d="M58.9,138.41c0,1.11-.9,2-2,2s-2-.9-2-2,.9-2,2-2,2,.9,2,2Z"></path><path class="cls-10" d="M58.9,158.59c0,1.11-.9,2-2,2s-2-.9-2-2,.9-2,2-2,2,.9,2,2Z"></path><path class="cls-10" d="M58.9,169.29c0,1.11-.9,2-2,2s-2-.9-2-2,.9-2,2-2,2,.9,2,2Z"></path><path class="cls-2" d="M86.52,217.76h-18.18c-1.09,0-1.97-.88-1.97-1.97h0c0-1.09.88-1.97,1.97-1.97h18.18c1.09,0,1.97.88,1.97,1.97h0c0,1.09-.88,1.97-1.97,1.97Z"></path><path class="cls-11" d="M86,200.14h-18.18c-1.09,0-1.97-.88-1.97-1.97h0c0-1.09.88-1.97,1.97-1.97h18.18c1.09,0,1.97.88,1.97,1.97h0c0,1.09-.88,1.97-1.97,1.97Z"></path><path class="cls-2" d="M133.79,200.14h-38.3c-1.02,0-1.85-.88-1.85-1.97h0c0-1.09.83-1.97,1.85-1.97h38.3c1.02,0,1.85.88,1.85,1.97h0c0,1.09-.83,1.97-1.85,1.97Z"></path><path class="cls-2" d="M106.12,208.77h-38.3c-1.02,0-1.85-.88-1.85-1.97h0c0-1.09.83-1.97,1.85-1.97h38.3c1.02,0,1.85.88,1.85,1.97h0c0,1.09-.83,1.97-1.85,1.97Z"></path><path class="cls-10" d="M58.9,198.17c0,1.11-.9,2-2,2s-2-.9-2-2,.9-2,2-2,2,.9,2,2Z"></path><rect class="cls-10" x="65.95" y="136.99" width="13.3" height="3.81" rx=".96" ry=".96"></rect><g><path class="cls-8" d="M86,241.29h-18.18c-1.09,0-1.97-.88-1.97-1.97h0c0-1.09.88-1.97,1.97-1.97h18.18c1.09,0,1.97.88,1.97,1.97h0c0,1.09-.88,1.97-1.97,1.97Z"></path><path class="cls-10" d="M115.13,241.29h-18.18c-1.09,0-1.97-.88-1.97-1.97h0c0-1.09.88-1.97,1.97-1.97h18.18c1.09,0,1.97.88,1.97,1.97h0c0,1.09-.88,1.97-1.97,1.97Z"></path><path class="cls-10" d="M58.9,239.32c0,1.11-.9,2-2,2s-2-.9-2-2,.9-2,2-2,2,.9,2,2Z"></path></g><path class="cls-10" d="M58.9,248.82c0,1.11-.9,2-2,2s-2-.9-2-2,.9-2,2-2,2,.9,2,2Z"></path><rect class="cls-10" x="65.95" y="247.4" width="13.3" height="3.81" rx=".96" ry=".96"></rect></g><g><g><rect class="cls-6" x="148.36" y="242.95" width="180.35" height="114.72"></rect><rect class="cls-9" x="148.36" y="242.95" width="32.48" height="114.72"></rect><path class="cls-2" d="M162.64,255.33c.17-.1.35-.18.54-.24l.11-.54.9-.02.13.53c.19.05.37.12.55.22l.46-.3.65.63-.28.47c.1.17.18.35.23.54l.54.11.02.9-.53.13c-.05.19-.12.37-.22.55l.3.46-.63.65-.47-.28c-.17.1-.35.18-.54.23l-.11.54-.9.02-.13-.53c-.19-.05-.37-.12-.55-.22l-.46.3-.65-.63.28-.47c-.1-.17-.18-.35-.24-.54l-.54-.11-.02-.9.53-.13c.05-.19.12-.37.22-.55l-.3-.46.63-.65.47.28h0ZM163.12,256.54c-.37.39-.36,1,.02,1.37.39.37,1,.36,1.37-.02.37-.39.36-1-.02-1.37-.39-.37-1-.36-1.37.02Z"></path><path class="cls-2" d="M170.14,280.68h-14.16c-.8,0-1.46-.65-1.46-1.46h0c0-.8.65-1.46,1.46-1.46h14.16c.8,0,1.46.65,1.46,1.46h0c0,.8-.65,1.46-1.46,1.46Z"></path><path class="cls-2" d="M170.14,273.27h-14.16c-.8,0-1.46-.65-1.46-1.46h0c0-.8.65-1.46,1.46-1.46h14.16c.8,0,1.46.65,1.46,1.46h0c0,.8-.65,1.46-1.46,1.46Z"></path><path class="cls-2" d="M170.14,266.48h-14.16c-.8,0-1.46-.65-1.46-1.46h0c0-.8.65-1.46,1.46-1.46h14.16c.8,0,1.46.65,1.46,1.46h0c0,.8-.65,1.46-1.46,1.46Z"></path><path class="cls-8" d="M208.19,259.9h-13.41c-.8,0-1.46-.65-1.46-1.46h0c0-.8.65-1.46,1.46-1.46h13.41c.8,0,1.46.65,1.46,1.46h0c0,.8-.65,1.46-1.46,1.46Z"></path><path class="cls-2" d="M208.19,267.52h-13.41c-.8,0-1.46-.65-1.46-1.46h0c0-.8.65-1.46,1.46-1.46h13.41c.8,0,1.46.65,1.46,1.46h0c0,.8-.65,1.46-1.46,1.46Z"></path><path class="cls-11" d="M208.19,275.39h-13.41c-.8,0-1.46-.65-1.46-1.46h0c0-.8.65-1.46,1.46-1.46h13.41c.8,0,1.46.65,1.46,1.46h0c0,.8-.65,1.46-1.46,1.46Z"></path><path class="cls-8" d="M202.47,290.61h-7.69c-.8,0-1.46-.65-1.46-1.46h0c0-.8.65-1.46,1.46-1.46h7.69c.8,0,1.46.65,1.46,1.46h0c0,.8-.65,1.46-1.46,1.46Z"></path><path class="cls-8" d="M202.47,298.5h-7.69c-.8,0-1.46-.65-1.46-1.46h0c0-.8.65-1.46,1.46-1.46h7.69c.8,0,1.46.65,1.46,1.46h0c0,.8-.65,1.46-1.46,1.46Z"></path><path class="cls-2" d="M225.32,298.5h-14.1c-.8,0-1.46-.65-1.46-1.46h0c0-.8.65-1.46,1.46-1.46h14.1c.8,0,1.46.65,1.46,1.46h0c0,.8-.65,1.46-1.46,1.46Z"></path><path class="cls-11" d="M217.35,305.51h-14.1c-.8,0-1.46-.65-1.46-1.46h0c0-.8.65-1.46,1.46-1.46h14.1c.8,0,1.46.65,1.46,1.46h0c0,.8-.65,1.46-1.46,1.46Z"></path><path class="cls-11" d="M210.78,310.61h9.69c.55,0,.99.45.99.99v.92c0,.55-.45.99-.99.99h-9.69c-.55,0-.99-.45-.99-.99v-.92c0-.55.45-.99.99-.99Z"></path><path class="cls-11" d="M220.01,329.2h-8.76c-.8,0-1.46-.65-1.46-1.46h0c0-.8.65-1.46,1.46-1.46h8.76c.8,0,1.46.65,1.46,1.46h0c0,.8-.65,1.46-1.46,1.46Z"></path><path class="cls-11" d="M220.01,345.76h-8.76c-.8,0-1.46-.65-1.46-1.46h0c0-.8.65-1.46,1.46-1.46h8.76c.8,0,1.46.65,1.46,1.46h0c0,.8-.65,1.46-1.46,1.46Z"></path><path class="cls-10" d="M241.55,345.76h-15.36c-.8,0-1.45-.65-1.45-1.46h0c0-.8.65-1.46,1.45-1.46h15.36c.8,0,1.45.65,1.45,1.46h0c0,.8-.65,1.46-1.45,1.46Z"></path><path class="cls-2" d="M252.3,345.76h-2.21c-.8,0-1.46-.65-1.46-1.46h0c0-.8.65-1.46,1.46-1.46h2.21c.8,0,1.46.65,1.46,1.46h0c0,.8-.65,1.46-1.46,1.46Z"></path><path class="cls-2" d="M240.63,329.2h-12.98c-.8,0-1.46-.65-1.46-1.46h0c0-.8.65-1.46,1.46-1.46h12.98c.8,0,1.46.65,1.46,1.46h0c0,.8-.65,1.46-1.46,1.46Z"></path><path class="cls-2" d="M269.1,336.47h-41.45c-.8,0-1.46-.65-1.46-1.46h0c0-.8.65-1.46,1.46-1.46h41.45c.8,0,1.45.65,1.45,1.46h0c0,.8-.65,1.46-1.45,1.46Z"></path><path class="cls-10" d="M273.88,329.2h-26.46c-.8,0-1.46-.65-1.46-1.46h0c0-.8.65-1.46,1.46-1.46h26.46c.8,0,1.46.65,1.46,1.46h0c0,.8-.65,1.46-1.46,1.46Z"></path><path class="cls-10" d="M226.27,310.61h11.89c.55,0,.99.45.99.99v.92c0,.55-.45.99-.99.99h-11.89c-.55,0-.99-.45-.99-.99v-.92c0-.55.45-.99.99-.99Z"></path><rect class="cls-2" x="243" y="310.61" width="5.63" height="2.91" rx=".99" ry=".99"></rect><rect class="cls-2" x="252.92" y="310.61" width="16.62" height="2.91" rx=".99" ry=".99"></rect><path class="cls-8" d="M226.9,305.51h-3.14c-.8,0-1.46-.65-1.46-1.46h0c0-.8.65-1.46,1.46-1.46h3.14c.8,0,1.46.65,1.46,1.46h0c0,.8-.65,1.46-1.46,1.46Z"></path><path class="cls-2" d="M253.52,305.51h-20.01c-.8,0-1.46-.65-1.46-1.46h0c0-.8.65-1.46,1.46-1.46h20.01c.8,0,1.46.65,1.46,1.46h0c0,.8-.65,1.46-1.46,1.46Z"></path><path class="cls-10" d="M229.67,259.9h-13.41c-.8,0-1.46-.65-1.46-1.46h0c0-.8.65-1.46,1.46-1.46h13.41c.8,0,1.46.65,1.46,1.46h0c0,.8-.65,1.46-1.46,1.46Z"></path><path class="cls-8" d="M246.95,267.52h-30.69c-.8,0-1.46-.65-1.46-1.46h0c0-.8.65-1.46,1.46-1.46h30.69c.8,0,1.46.65,1.46,1.46h0c0,.8-.65,1.46-1.46,1.46Z"></path><path class="cls-2" d="M280,275.39h-63.74c-.8,0-1.46-.65-1.46-1.46h0c0-.8.65-1.46,1.46-1.46h63.74c.8,0,1.46.65,1.46,1.46h0c0,.8-.65,1.46-1.46,1.46Z"></path><path class="cls-2" d="M246.31,280.94h-30.05c-.8,0-1.46-.65-1.46-1.46h0c0-.8.65-1.46,1.46-1.46h30.05c.8,0,1.46.65,1.46,1.46h0c0,.8-.65,1.46-1.46,1.46Z"></path><path class="cls-10" d="M240.17,290.61h-30.05c-.8,0-1.46-.65-1.46-1.46h0c0-.8.65-1.46,1.46-1.46h30.05c.8,0,1.46.65,1.46,1.46h0c0,.8-.65,1.46-1.46,1.46Z"></path><path class="cls-11" d="M256.99,290.61h-10.07c-.8,0-1.46-.65-1.46-1.46h0c0-.8.65-1.46,1.46-1.46h10.07c.8,0,1.46.65,1.46,1.46h0c0,.8-.65,1.46-1.46,1.46Z"></path><path class="cls-8" d="M282.75,290.56h-19.03c-.8,0-1.46-.65-1.46-1.46h0c0-.8.65-1.46,1.46-1.46h19.03c.8,0,1.46.65,1.46,1.46h0c0,.8-.65,1.46-1.46,1.46Z"></path><path class="cls-2" d="M308.64,290.56h-19.03c-.8,0-1.46-.65-1.46-1.46h0c0-.8.65-1.46,1.46-1.46h19.03c.8,0,1.46.65,1.46,1.46h0c0,.8-.65,1.46-1.46,1.46Z"></path><path class="cls-2" d="M164.01,288.53h-8.03c-.8,0-1.46-.65-1.46-1.46h0c0-.8.65-1.46,1.46-1.46h8.03c.8,0,1.46.65,1.46,1.46h0c0,.8-.65,1.46-1.46,1.46Z"></path><path class="cls-2" d="M161.61,312.07h-5.62c-.8,0-1.46-.65-1.46-1.46h0c0-.8.65-1.46,1.46-1.46h5.62c.8,0,1.46.65,1.46,1.46h0c0,.8-.65,1.46-1.46,1.46Z"></path><path class="cls-2" d="M171.6,296.37h-15.61c-.8,0-1.46-.65-1.46-1.46h0c0-.8.65-1.46,1.46-1.46h15.61c.8,0,1.46.65,1.46,1.46h0c0,.8-.65,1.46-1.46,1.46Z"></path><path class="cls-2" d="M168.86,304.22h-12.87c-.8,0-1.46-.65-1.46-1.46h0c0-.8.65-1.46,1.46-1.46h12.87c.8,0,1.46.65,1.46,1.46h0c0,.8-.65,1.46-1.46,1.46Z"></path><path class="cls-10" d="M188.2,258.45c0,.82-.66,1.48-1.48,1.48s-1.48-.66-1.48-1.48.66-1.48,1.48-1.48,1.48.66,1.48,1.48Z"></path><circle class="cls-10" cx="186.72" cy="250.68" r="1.48"></circle><circle class="cls-10" cx="186.72" cy="266.04" r="1.48"></circle><circle class="cls-10" cx="186.72" cy="273.94" r="1.48"></circle><circle class="cls-10" cx="186.72" cy="281.83" r="1.48"></circle><path class="cls-10" d="M188.2,289.72c0,.82-.66,1.48-1.48,1.48s-1.48-.66-1.48-1.48.66-1.48,1.48-1.48,1.48.66,1.48,1.48Z"></path><circle class="cls-10" cx="186.72" cy="297.62" r="1.48"></circle><circle class="cls-10" cx="186.72" cy="305.51" r="1.48"></circle><path class="cls-10" d="M188.2,313.41c0,.82-.66,1.48-1.48,1.48s-1.48-.66-1.48-1.48.66-1.48,1.48-1.48,1.48.66,1.48,1.48Z"></path><path class="cls-10" d="M188.2,321.3c0,.82-.66,1.48-1.48,1.48s-1.48-.66-1.48-1.48.66-1.48,1.48-1.48,1.48.66,1.48,1.48Z"></path><circle class="cls-10" cx="186.72" cy="329.2" r="1.48"></circle><path class="cls-10" d="M188.2,337.09c0,.82-.66,1.48-1.48,1.48s-1.48-.66-1.48-1.48.66-1.48,1.48-1.48,1.48.66,1.48,1.48Z"></path><circle class="cls-10" cx="186.72" cy="344.99" r="1.48"></circle><path class="cls-2" d="M153.77,227.31h171.11c2.12,0,3.83,1.72,3.83,3.83v11.81h-180.35v-10.24c0-2.98,2.42-5.4,5.4-5.4Z"></path><g><circle class="cls-6" cx="157.68" cy="235.61" r="2.15"></circle><path class="cls-6" d="M166.44,235.61c0,1.19-.96,2.15-2.15,2.15s-2.15-.96-2.15-2.15.96-2.15,2.15-2.15,2.15.96,2.15,2.15Z"></path><path class="cls-6" d="M173.05,235.61c0,1.19-.96,2.15-2.15,2.15s-2.15-.96-2.15-2.15.96-2.15,2.15-2.15,2.15.96,2.15,2.15Z"></path></g></g><polygon class="cls-6" points="186.72 355.89 201.97 372.36 215.8 355.89 186.72 355.89"></polygon><path class="cls-8" d="M323.82,357.68s.57.05,1.58-.29c.5-.17,1.1-.48,1.68-1.01.58-.52,1.13-1.3,1.4-2.3.15-.5.18-1.04.17-1.63,0-.58,0-1.2,0-1.84,0-1.29,0-2.69-.01-4.22,0-3.05-.01-6.57-.02-10.53-.02-15.85-.05-38.77-.08-67.1,0-7.08-.01-14.5-.02-22.23,0-3.87,0-7.81,0-11.83-.01-.99.03-2.04-.03-3-.11-.96-.51-1.9-1.18-2.62-.65-.74-1.55-1.24-2.51-1.45-.95-.17-2.03-.07-3.06-.1-16.66,0-34.45.02-53.18.02-18.73,0-38.39,0-58.76.02-10.19,0-20.56,0-31.08,0-5.26,0-10.56,0-15.9,0-2.67,0-5.34,0-8.03,0-.66.01-1.37-.02-1.99.02-.63.06-1.25.26-1.81.58-1.11.63-1.94,1.73-2.23,2.98-.21.85-.1,1.82-.12,2.75v2.82c0,1.88,0,3.75,0,5.62,0,3.74,0,7.46,0,11.16,0,7.4,0,14.74,0,21.99,0,14.5,0,28.67,0,42.44,0,6.88,0,13.67,0,20.34,0,3.34,0,6.64,0,9.92,0,1.63-.02,3.29.01,4.88.07,1.55,1,3,2.34,3.76.66.39,1.42.58,2.18.61.8,0,1.6,0,2.39,0,1.59,0,3.18,0,4.76,0,3.16,0,6.28,0,9.38,0,6.19,0,12.24,0,18.16,0h.1s.07.07.07.07c4.8,5.05,9.45,9.95,13.96,14.7h-.31c4.28-5.08,8.39-9.96,12.34-14.67l.06-.07h.09c33.76.04,61.18.07,80.17.09,9.49.02,16.87.04,21.88.05,2.5.01,4.41.02,5.7.03,1.29,0,1.94.03,1.94.03,0,0-.66.02-1.94.03-1.29,0-3.2.02-5.7.03-5.02.01-12.4.03-21.88.05-18.99.02-46.41.05-80.17.09l.15-.07c-3.95,4.71-8.05,9.6-12.33,14.7l-.15.18-.16-.17c-4.52-4.74-9.17-9.64-13.98-14.68l.16.07c-5.91,0-11.97,0-18.16,0-3.09,0-6.22,0-9.38,0-1.58,0-3.17,0-4.76,0-.8,0-1.6,0-2.4,0-.84-.03-1.68-.24-2.41-.67-1.47-.83-2.5-2.43-2.58-4.14-.03-1.65,0-3.26-.02-4.91,0-3.28,0-6.59,0-9.92,0-6.67,0-13.45,0-20.34,0-13.77,0-27.94,0-42.44,0-7.25,0-14.58,0-21.99,0-3.7,0-7.42,0-11.16,0-1.87,0-3.74,0-5.62v-4.23c0-.46.02-.98.14-1.46.32-1.39,1.24-2.62,2.48-3.31.62-.35,1.31-.57,2.01-.64.72-.05,1.36-.01,2.04-.03,2.68,0,5.36,0,8.03,0,5.34,0,10.64,0,15.9,0,10.52,0,20.89,0,31.08,0,20.38,0,40.04.01,58.76.02,18.73,0,36.52.02,53.18.02,1.04.03,2.06-.08,3.15.11,1.05.23,2.03.78,2.74,1.59.72.79,1.16,1.81,1.28,2.86.06,1.06.02,2.03.03,3.05,0,4.02,0,7.96,0,11.83,0,7.73-.01,15.15-.02,22.23-.03,28.32-.06,51.25-.08,67.1,0,3.96-.02,7.48-.02,10.53,0,1.52,0,2.93-.01,4.22,0,.64,0,1.26,0,1.84,0,.58-.03,1.15-.19,1.65-.29,1.02-.85,1.8-1.45,2.33-.59.54-1.21.84-1.72,1-.51.17-.92.22-1.19.24-.27,0-.41,0-.41,0Z"></path></g><g><path class="cls-6" d="M162.53,128.49h136.25c1.75,0,3.17,1.42,3.17,3.17v68.53c0,2.09-1.7,3.79-3.79,3.79h-135.63c-1.75,0-3.17-1.42-3.17-3.17v-69.15c0-1.75,1.42-3.17,3.17-3.17Z"></path><path class="cls-2" d="M162.83,128.49h135.64c1.92,0,3.47,1.56,3.47,3.47v12.74h-142.58v-12.74c0-1.92,1.56-3.47,3.47-3.47Z"></path><path class="cls-8" d="M297.93,203.98s.38.01,1.09-.18c.68-.2,1.75-.73,2.42-2,.34-.63.49-1.42.44-2.3,0-.88,0-1.85-.01-2.9,0-2.09-.01-4.51-.02-7.23-.02-10.89-.05-26.62-.08-46.06,0-2.43,0-4.92,0-7.46,0-1.27,0-2.56,0-3.86.11-1.26-.58-2.5-1.73-3.03-.57-.28-1.19-.29-1.87-.28-.67,0-1.34,0-2.02,0-1.35,0-2.72,0-4.1,0-2.76,0-5.57,0-8.43,0-11.43,0-23.65.02-36.5.02-25.71,0-53.97.01-83.64.02-.48,0-.91-.01-1.32.09-.42.1-.81.28-1.16.53-.7.5-1.18,1.28-1.31,2.13-.07.41-.04.88-.05,1.34v4.13c0,3.66,0,7.3,0,10.92,0,7.23,0,14.35,0,21.34,0,7,0,13.87,0,20.6,0,3.36,0,6.69,0,9.99-.07,1.57.91,3.09,2.35,3.64.71.31,1.48.28,2.3.28.81,0,1.61,0,2.42,0,25.71.02,48.86.04,68.31.06,19.44.03,35.17.06,46.05.08,5.43.02,9.65.04,12.52.05,1.42.01,2.51.02,3.26.03.73,0,1.11.03,1.11.03,0,0-.38.02-1.11.03-.74,0-1.83.01-3.26.03-2.87.01-7.09.03-12.52.05-10.88.02-26.62.05-46.05.08-19.45.02-42.6.03-68.31.06-.8,0-1.61,0-2.42,0-.78,0-1.68.04-2.49-.31-1.63-.62-2.74-2.36-2.66-4.09,0-3.29,0-6.62,0-9.99,0-6.73,0-13.6,0-20.6,0-7,0-14.12,0-21.34,0-3.61,0-7.25,0-10.92v-2.75s0-1.38,0-1.38c0-.46-.03-.92.05-1.42.15-.98.71-1.89,1.52-2.47.4-.29.86-.5,1.35-.62.49-.12.99-.1,1.44-.11,29.67,0,57.93.01,83.64.02,12.85,0,25.07.02,36.5.02,2.86,0,5.67,0,8.43,0,1.38,0,2.75,0,4.1,0,.68,0,1.35,0,2.02,0,.65-.02,1.41,0,2.04.32,1.3.58,2.09,2.05,1.96,3.39,0,1.3,0,2.59,0,3.86,0,2.54,0,5.03,0,7.46-.03,19.44-.06,35.17-.08,46.06,0,2.72-.02,5.13-.02,7.23,0,1.05,0,2.01-.01,2.9,0,.44,0,.87-.09,1.27-.09.4-.22.76-.39,1.08-.71,1.29-1.8,1.81-2.5,2-.72.18-1.1.13-1.1.13Z"></path><g><circle class="cls-6" cx="169.97" cy="137.86" r="2.66"></circle><path class="cls-6" d="M180.79,137.86c0,1.47-1.19,2.66-2.66,2.66s-2.66-1.19-2.66-2.66,1.19-2.66,2.66-2.66,2.66,1.19,2.66,2.66Z"></path><circle class="cls-6" cx="186.31" cy="137.86" r="2.66"></circle></g><g><path class="cls-8" d="M200.44,167.54h-16.58c-.99,0-1.8-.81-1.8-1.8h0c0-.99.81-1.8,1.8-1.8h16.58c.99,0,1.8.81,1.8,1.8h0c0,.99-.81,1.8-1.8,1.8Z"></path><path class="cls-2" d="M200.44,176.96h-16.58c-.99,0-1.8-.81-1.8-1.8h0c0-.99.81-1.8,1.8-1.8h16.58c.99,0,1.8.81,1.8,1.8h0c0,.99-.81,1.8-1.8,1.8Z"></path><path class="cls-2" d="M287.94,167.54h-48.08c-.99,0-1.8-.81-1.8-1.8h0c0-.99.81-1.8,1.8-1.8h48.08c.99,0,1.8.81,1.8,1.8h0c0,.99-.81,1.8-1.8,1.8Z"></path><path class="cls-11" d="M200.44,186.69h-16.58c-.99,0-1.8-.81-1.8-1.8h0c0-.99.81-1.8,1.8-1.8h16.58c.99,0,1.8.81,1.8,1.8h0c0,.99-.81,1.8-1.8,1.8Z"></path><path class="cls-11" d="M276.47,176.96h-16.58c-.99,0-1.8-.81-1.8-1.8h0c0-.99.81-1.8,1.8-1.8h16.58c.99,0,1.8.81,1.8,1.8h0c0,.99-.81,1.8-1.8,1.8Z"></path><path class="cls-10" d="M227,167.54h-16.58c-.99,0-1.8-.81-1.8-1.8h0c0-.99.81-1.8,1.8-1.8h16.58c.99,0,1.8.81,1.8,1.8h0c0,.99-.81,1.8-1.8,1.8Z"></path><path class="cls-8" d="M248.35,176.96h-37.93c-.99,0-1.8-.81-1.8-1.8h0c0-.99.81-1.8,1.8-1.8h37.93c.99,0,1.8.81,1.8,1.8h0c0,.99-.81,1.8-1.8,1.8Z"></path><path class="cls-2" d="M285.56,186.69h-75.22c-.95,0-1.72-.81-1.72-1.8h0c0-.99.77-1.8,1.72-1.8h75.22c.95,0,1.72.81,1.72,1.8h0c0,.99-.77,1.8-1.72,1.8Z"></path><path class="cls-2" d="M247.56,193.54h-37.14c-.99,0-1.8-.81-1.8-1.8h0c0-.99.81-1.8,1.8-1.8h37.14c.99,0,1.8.81,1.8,1.8h0c0,.99-.81,1.8-1.8,1.8Z"></path><path class="cls-10" d="M175.74,165.75c0,1.01-.82,1.83-1.83,1.83s-1.83-.82-1.83-1.83.82-1.83,1.83-1.83,1.83.82,1.83,1.83Z"></path><path class="cls-10" d="M175.74,156.74c0,1.01-.82,1.83-1.83,1.83s-1.83-.82-1.83-1.83.82-1.83,1.83-1.83,1.83.82,1.83,1.83Z"></path><circle class="cls-10" cx="173.91" cy="175.13" r="1.83"></circle><circle class="cls-10" cx="173.91" cy="184.89" r="1.83"></circle></g><rect class="cls-10" x="182.44" y="154.58" width="12.12" height="3.47" rx=".96" ry=".96"></rect></g></g><g id="Coffee"><g><g><path class="cls-3" d="M89.53,439.01c-8.34,3.63-16.38,3.97-24.02,0l-5.58-46.73h34.65l-5.06,46.73Z"></path><g><path class="cls-2" d="M92.3,389.57l-1.04-3.34-26.1-3.19c-.71-.09-1.39.34-1.62,1.01l-1.89,5.51h-3.34v6.05c13.11,2.31,25.66,2.45,37.54,0v-6.05h-3.55Z"></path><path class="cls-8" d="M92.3,389.57s.09-.01.24-.02c.18,0,.41-.01.69-.02.64-.01,1.51-.03,2.61-.05h.1s0,.1,0,.1c.01,1.56.03,3.6.06,6.05v.13s-.12.03-.12.03c-4.16.87-9.68,1.71-16.11,1.84-6.43.15-13.74-.38-21.36-1.71l-.14-.02-.22-.04v-.22c0-2.05,0-4.08,0-6.05v-.26s.26,0,.26,0c1.13,0,2.24,0,3.34,0l-.24.17c.64-1.85,1.26-3.65,1.87-5.4.13-.49.52-.96,1.01-1.15.24-.1.51-.15.77-.14.26.02.46.05.69.08.89.11,1.77.22,2.64.33,3.45.43,6.67.84,9.59,1.21,5.77.75,10.36,1.34,13.3,1.73h.06s.02.07.02.07c.31,1.05.54,1.87.72,2.48.07.26.13.48.18.65.04.15.06.23.05.24,0,0-.03-.06-.08-.2-.06-.17-.13-.37-.22-.62-.2-.6-.48-1.43-.83-2.49l.08.07c-2.95-.34-7.54-.86-13.32-1.52-2.92-.35-6.14-.73-9.6-1.14-.87-.1-1.75-.21-2.64-.32-.47-.05-.87-.14-1.22.03-.36.16-.62.45-.74.86-.6,1.76-1.22,3.56-1.85,5.41l-.06.17h-.18c-1.09,0-2.21,0-3.34,0l.26-.26c0,1.97,0,3.99,0,6.05l-.22-.26.14.02c7.59,1.33,14.86,1.88,21.26,1.76,6.4-.1,11.91-.88,16.06-1.68l-.12.15c.02-2.45.04-4.49.06-6.05l.1.1c-1.13-.02-2.01-.04-2.66-.05-.27,0-.49-.02-.67-.02-.15,0-.22-.01-.22-.02Z"></path></g><path class="cls-4" d="M91.98,423.52c-9.05,1.46-19.05,1.25-29.63,0l-1.44-14.17c11.16,1.2,22.11,1.25,32.82,0l-1.75,14.17Z"></path><g><path class="cls-3" d="M75.31,413.9c-1.35.82-1.9,2.55-1.22,4.02l.94,2.03c.68,1.47,2.36,2.16,3.86,1.66l-3.58-7.7Z"></path><path class="cls-3" d="M75.94,413.61l3.58,7.7c1.35-.82,1.9-2.55,1.22-4.02l-.94-2.03c-.68-1.47-2.36-2.16-3.86-1.66Z"></path></g></g><path class="cls-8" d="M92.59,389.66s-.41.16-1.18.36c-.77.2-1.89.44-3.28.69-2.79.5-6.7.95-11.03.94-4.34-.01-8.24-.48-11.03-.99-1.39-.25-2.52-.5-3.28-.7-.77-.2-1.19-.33-1.18-.36s.44.02,1.22.16c.78.14,1.9.33,3.3.54,2.79.42,6.67.82,10.97.83,4.3,0,8.18-.38,10.97-.78,1.4-.2,2.52-.38,3.3-.53.78-.13,1.21-.19,1.22-.16Z"></path></g></g><g id="Device"><g><path class="cls-2" d="M110.4,320.16s-5.71,1.23-6.7,5.28,7.95,101,8.31,103.36c.56,3.71,3.69,8.42,10.74,8.17,6.14-.22,89.85-.03,110.93.02,2.8,0,4.48-2.38,4.85-5.22h0l-103.64-6.12-24.49-105.5Z"></path><g><path class="cls-2" d="M107.8,323.4l8.98,104.55c.17,1.71,1.6,3.02,3.31,3.04l118.44.53-22.75-22.58-76.94-.54-8.23-81.91c-.11-1.09-.91-1.98-1.97-2.23l-17.24-4.02c-1.96-.46-3.79,1.15-3.6,3.16Z"></path><path class="cls-8" d="M107.8,323.4s-.03-.17-.02-.5c.01-.33.1-.85.46-1.41.35-.55,1.03-1.16,2.01-1.33.49-.1,1.04-.01,1.57.13.55.13,1.13.26,1.75.4,2.49.57,5.55,1.27,9.15,2.1,1.8.41,3.74.86,5.8,1.34,1.08.18,2.07,1.14,2.19,2.33.12,1.12.23,2.27.36,3.46,1.93,18.94,4.68,46,7.98,78.47l-.22-.2c23.09.15,49.14.33,76.94.51h.1s.07.07.07.07c7.29,7.23,14.95,14.84,22.76,22.58l.45.45h-.64c-1.66-.01-3.45-.02-5.25-.03-30.8-.15-60.14-.28-86.83-.41-6.67-.03-13.18-.07-19.5-.1-1.58,0-3.15-.02-4.71-.02-.78,0-1.54,0-2.34-.02-.82-.05-1.62-.39-2.22-.95-.6-.55-1-1.32-1.11-2.12-.09-.78-.13-1.52-.2-2.27-.13-1.5-.25-2.99-.38-4.47-1-11.82-1.94-22.84-2.79-32.89-1.69-20.1-3.06-36.37-4.01-47.63-.46-5.62-.82-9.98-1.06-12.95-.12-1.47-.2-2.6-.26-3.37-.06-.76-.07-1.15-.07-1.15,0,0,.05.39.12,1.14.07.77.18,1.89.31,3.36.27,2.97.66,7.33,1.16,12.94.99,11.25,2.41,27.52,4.17,47.61.87,10.05,1.83,21.06,2.86,32.89.13,1.48.26,2.97.39,4.47.07.75.12,1.52.2,2.25.1.7.45,1.37.98,1.86.53.49,1.22.79,1.94.83.75.02,1.54.01,2.31.02,1.56,0,3.13.01,4.71.02,6.32.02,12.83.05,19.5.08,26.69.11,56.03.24,86.83.37,1.8,0,3.59.02,5.25.02l-.18.44c-7.8-7.74-15.46-15.35-22.75-22.58l.18.07c-27.81-.21-53.85-.4-76.94-.58h-.2s-.02-.2-.02-.2c-3.22-32.48-5.91-59.54-7.79-78.49-.12-1.18-.23-2.33-.34-3.45-.11-1.08-.99-1.96-2-2.13-2.06-.49-3.99-.94-5.79-1.37-3.59-.85-6.65-1.57-9.13-2.16-.62-.15-1.2-.29-1.75-.42-.55-.15-1.05-.23-1.53-.14-.95.15-1.62.73-1.97,1.26-.36.54-.46,1.05-.48,1.38-.03.33,0,.5-.02.5Z"></path></g><polygon class="cls-8" points="194.5 428.8 205.51 428.8 191.59 410.75 185.06 410.75 194.5 428.8"></polygon><path class="cls-8" d="M111.87,328.12l8.41,90.84,15.67-12.46-6.74-76.53c-.05-.61-.52-1.11-1.13-1.2l-14.68-2.1c-.86-.12-1.6.59-1.51,1.45Z"></path><polygon class="cls-8" points="128.7 428.8 140.06 428.8 151.61 410.75 145.07 410.75 128.7 428.8"></polygon><polygon class="cls-8" points="142.65 428.8 153.66 428.8 159.69 410.75 153.15 410.75 142.65 428.8"></polygon><polygon class="cls-8" points="156.12 428.8 167.13 428.8 167.72 410.75 161.19 410.75 156.12 428.8"></polygon><polygon class="cls-8" points="168.62 428.8 179.63 428.8 175.56 410.75 169.03 410.75 168.62 428.8"></polygon><polygon class="cls-8" points="181.64 428.8 192.65 428.8 183.68 410.75 177.15 410.75 181.64 428.8"></polygon><path class="cls-2" d="M204.96,425.28c0,.09-16.79.16-37.49.16s-37.5-.07-37.5-.16,16.79-.16,37.5-.16,37.49.07,37.49.16Z"></path><path class="cls-2" d="M202.96,421.97c0,.09-15.94.16-35.61.16s-35.61-.07-35.61-.16,15.94-.16,35.61-.16,35.61.07,35.61.16Z"></path><path class="cls-2" d="M202.96,418.97c0,.17-15,.31-33.51.31s-33.51-.14-33.51-.31,15-.31,33.51-.31,33.51.14,33.51.31Z"></path><path class="cls-2" d="M203.42,416.23c0,.17-14.68.31-32.78.31s-32.79-.14-32.79-.31,14.68-.31,32.79-.31,32.78.14,32.78.31Z"></path><path class="cls-2" d="M204.96,414.23c0,.17-14.78.31-33,.31s-33-.14-33-.31,14.77-.31,33-.31,33,.14,33,.31Z"></path><path class="cls-2" d="M206.58,412.13c0,.17-15.05.31-33.62.31s-33.62-.14-33.62-.31,15.05-.31,33.62-.31,33.62.14,33.62.31Z"></path><g><path class="cls-2" d="M118.44,427.94c6.84-6.4,13.68-12.8,20.52-19.2"></path><path class="cls-8" d="M138.96,408.75c.1.1-4.42,4.49-10.08,9.79-5.67,5.3-10.34,9.51-10.44,9.41-.1-.1,4.41-4.49,10.08-9.79,5.67-5.3,10.34-9.51,10.44-9.41Z"></path></g></g></g><g id="Character"><g><g><path class="cls-10" d="M478.51,337.24s-1.01-10.61-27.46-17.41c-12.77-3.28-43.26-4.86-46.71,14.96-.11.64-15.17,125.27-15.17,125.27h56.36l32.98-122.83Z"></path><path class="cls-10" d="M469.58,460.06h-26l8.68-122.11c.64-5.94,6.79-10.23,13.74-9.57l2.33.22c6.95.66,11.35,7.35,11.15,14.98l-9.9,116.47Z"></path><path class="cls-8" d="M445.53,455.67c-.14-.01,1.69-24.06,4.1-53.72,2.41-29.66,4.48-53.69,4.62-53.68.14.01-1.69,24.06-4.1,53.72-2.41,29.65-4.48,53.69-4.62,53.67Z"></path><path class="cls-8" d="M473.52,331.47c-.04.1-1.35-.57-3.65-.86-2.27-.3-5.61-.06-8.67,1.69-3.06,1.76-4.95,4.53-5.84,6.64-.91,2.13-1,3.61-1.1,3.59-.03,0-.03-.37.05-1.02.08-.65.29-1.6.71-2.7.81-2.2,2.73-5.11,5.92-6.95,3.2-1.83,6.67-2.01,8.98-1.6,1.17.2,2.09.49,2.69.75.61.26.92.45.91.47Z"></path></g><g><g><path class="cls-8" d="M391.41,178.81c.26-7.15-4.58-8.11-8.31-7.29-4.53-3.33-11.41-2.96-15.55.85-3.4-1.85-7.76-1.78-11.09.18-3.33,1.96-5.51,5.75-5.54,9.61-3.89-.48-7.96,1.76-9.64,5.3-1.68,3.54-.83,8.11,2,10.82-4.16,1.52-6.75,6.42-5.66,10.71,1.09,4.29,5.71,7.36,10.09,6.71l43.86-29.21c2.63-2.77-.29-3.87-.15-7.69Z"></path><g><g><path class="cls-4" d="M346.43,217.02c.9-19.96,16.97-35.88,36.93-36.59l1.98-.07c21.43.49,32.99,18.97,31.91,40.38l-.57,71.34-.14,13.55-49.01,11.65-.5-28.24s-20.68-2.47-21.66-23.02c-.48-9.93.21-30.44,1.04-49.01Z"></path><path class="cls-3" d="M366.88,289.02s13.16.32,26.66-8.84c0,0-5.81,15.02-26.39,13.9l-.27-5.06Z"></path><path class="cls-8" d="M352.42,237.76c0,1.55,1.32,2.83,2.94,2.86,1.62.03,2.93-1.2,2.93-2.75,0-1.55-1.31-2.83-2.93-2.86-1.62-.03-2.94,1.2-2.94,2.76Z"></path><path class="cls-8" d="M351.02,227.98c.38.37,2.54-1.36,5.7-1.46,3.15-.15,5.53,1.39,5.86,1,.16-.18-.23-.86-1.27-1.55-1.02-.7-2.74-1.35-4.71-1.27-1.97.08-3.6.86-4.52,1.64-.95.78-1.25,1.48-1.06,1.65Z"></path><path class="cls-8" d="M377.81,237.11c0,1.55,1.32,2.83,2.94,2.86,1.62.03,2.93-1.2,2.93-2.76,0-1.55-1.32-2.83-2.93-2.86-1.62-.03-2.94,1.2-2.94,2.76Z"></path><path class="cls-8" d="M381.23,226.46c.38.37,2.55-1.35,5.7-1.46,3.15-.15,5.53,1.39,5.86.99.16-.18-.23-.86-1.27-1.55-1.02-.7-2.74-1.35-4.71-1.27-1.97.08-3.6.86-4.52,1.64-.94.78-1.25,1.48-1.06,1.65Z"></path><path class="cls-8" d="M371.65,250.25c0-.18-1.97-.45-5.16-.74-.81-.05-1.58-.19-1.73-.73-.21-.58.1-1.46.45-2.41.69-1.98,1.41-4.05,2.17-6.23,3-8.86,5.14-16.14,4.79-16.26-.36-.12-3.08,6.97-6.08,15.84-.72,2.18-1.41,4.27-2.07,6.26-.27.93-.76,1.99-.31,3.18.24.6.85,1.01,1.37,1.13.52.14.98.13,1.38.14,3.21.06,5.2,0,5.2-.18Z"></path><path class="cls-8" d="M381.03,252.1c-.51-.01-.4,3.42-3.25,5.96-2.84,2.55-6.51,2.29-6.52,2.77-.04.22.84.64,2.38.62,1.51,0,3.71-.57,5.45-2.12,1.74-1.56,2.44-3.58,2.5-4.99.08-1.44-.33-2.27-.57-2.25Z"></path><path class="cls-8" d="M380.86,217.44c.4.81,3.1-.03,6.41-.09,3.31-.14,6.09.53,6.4-.3.13-.39-.45-1.12-1.63-1.78-1.18-.66-2.97-1.18-4.95-1.12-1.98.06-3.71.69-4.8,1.42-1.11.73-1.6,1.49-1.42,1.87Z"></path><path class="cls-8" d="M351.42,219.28c.52.74,2.73.1,5.35.19,2.62,0,4.81.71,5.35-.02.24-.35-.07-1.09-1.01-1.81-.92-.72-2.49-1.35-4.29-1.38-1.8-.03-3.39.55-4.33,1.24-.96.69-1.3,1.42-1.07,1.78Z"></path><path class="cls-8" d="M348.07,207.52s4.96-13.07,11.07-16.29c7.39-3.9,10.92,4.23,18.01,1.97,7.09-2.26,14.14-6,21.66-.73,8.23,5.78,4.62,10.16,5.44,19.27,3.32,36.91,10.45,47.13,11.75,29.64.14-1.92,5.39-3.62,5.88-11.71.65-10.49.6-23.2-2-30.54-2.19-6.18-5.91-10.38-12.47-14.92-10.36-7.16-24.23-6.83-33.62-5.55-9.38,1.28-27.15,12.76-25.72,28.85Z"></path><path class="cls-4" d="M414.67,240.87c.02-3.18,2.66-5.78,5.83-5.59,3.85.23,8.19,2.25,8.22,10.19.05,14.07-14.09,11.22-14.11,10.82-.02-.27.03-9.52.06-15.41Z"></path><path class="cls-3" d="M417.65,250.98c.06-.05.25.17.66.36.4.18,1.1.31,1.83.03,1.48-.55,2.73-2.92,2.79-5.45.03-1.28-.24-2.5-.7-3.51-.43-1.03-1.1-1.74-1.85-1.87-.75-.17-1.27.28-1.44.68-.19.39-.1.67-.17.7-.04.04-.3-.24-.19-.82.06-.28.22-.61.55-.88.34-.28.83-.42,1.35-.36,1.09.07,2.07,1.07,2.57,2.17.56,1.11.9,2.48.86,3.92-.08,2.84-1.52,5.49-3.55,6.09-.99.26-1.82-.03-2.24-.36-.44-.35-.51-.66-.46-.69Z"></path></g><path class="cls-8" d="M413.43,213.65c-1.78,1.31-3.66,2.66-5.86,2.96-2.19.3-4.75-.88-5.2-3.04-.2-.97,0-2.12-.67-2.85-.8-.87-2.21-.54-3.38-.38-4.07.58-8.36-2.16-9.54-6.1-.99,1.6-3.42,1.62-5.04.66-1.61-.96-2.69-2.59-3.97-3.96-1.28-1.37-3.06-2.57-4.91-2.24-1.03.18-1.98.84-3.03.78-1.85-.1-2.83-2.23-3.17-4.05-.34-1.82-.64-3.95-2.24-4.89-1.48-.87-3.34-.27-5.03.04-1.69.31-3.9-.01-4.39-1.66-.26-.86.08-1.79.54-2.57,2.07-3.52,6.78-5.22,10.62-3.83,1.21-4.69,5.42-8.46,10.22-9.14,4.8-.68,9.89,1.77,12.36,5.94,2.87-2.8,7.15-4.09,11.09-3.33,3.94.75,7.44,3.52,9.09,7.19,3.39-1.02,7.33.16,9.6,2.88,2.27,2.72,2.72,6.81,1.11,9.96,2.58,1.35,4.83,3.79,4.99,6.69.16,2.91-2.58,5.91-5.41,5.24,1.21,2.22.4,5.33-1.75,6.68-2.15,1.34-5.3.71-6.77-1.35"></path></g><path class="cls-10" d="M422.23,207.88s.3,1.17-.78,2.73c-.54.74-1.47,1.53-2.76,1.78-1.26.26-2.82,0-4.05-1.02l.59-.11c-.65,1.23-1.53,2.5-2.68,3.61-.74.7-1.58,1.31-2.5,1.68-.91.4-1.96.47-2.82.36-1.79-.13-3.38-1.03-4.14-2.18-.79-1.12-1.06-2.18-1.24-2.88-.17-.71-.2-1.12-.15-1.13.06-.02.19.37.45,1.04.26.66.62,1.66,1.39,2.63,1.4,1.97,5.78,2.84,8.45-.1,1.07-1.03,1.92-2.22,2.56-3.38l.23-.42.36.31c1,.87,2.34,1.14,3.43.96,1.11-.17,1.96-.8,2.5-1.43,1.08-1.32,1.03-2.47,1.16-2.44Z"></path></g><g><path class="cls-4" d="M256.02,391.95s-26.53-.79-28.12-1.29c-1.59-.5-5.46-.6-7.35,0-1.89.6-9.44,3.28-9.44,3.28l-16.03,4.27s-16.1,10.53-15.77,12.64,2.09,3.55,4.97,2.46c2.88-1.09,17.42-8.64,17.42-8.64l15.96-1.69s21.83,7.84,26.23,7.45c4.41-.39,15.7-2.3,15.7-2.3,0,0,1.59-11.31.79-13.1-.79-1.79-4.37-3.08-4.37-3.08Z"></path><g><path class="cls-4" d="M180.47,420.22s13.44-14.42,17.17-16.36c3.73-1.94,24.46-5.34,24.46-5.34,0,0,6.64-2.75,9.07-1.78,2.43.97,28.18,4.86,29.32,5.02,1.13.16-5.51,22.68-5.51,22.68,0,0-8.91,1.62-19.27-.81-10.37-2.43-13.93-5.67-13.93-5.67l-10.35-2.72-6.33,2.41s-1.14,9.37-5.67,8.89l-2.11-1.46,1.62-10.37-6.64,2.75s-5.18,7.77-9.07,6.64c-3.89-1.13-2.75-3.89-2.75-3.89Z"></path><path class="cls-3" d="M180.47,420.22s-.16.38-.1,1.12c.04.37.17.83.5,1.27.33.44.86.83,1.52,1.11.66.28,1.46.52,2.33.33.86-.2,1.73-.68,2.57-1.31,1.69-1.27,3.33-3.12,4.88-5.36l.03-.04.04-.02c1.99-.83,4.23-1.77,6.63-2.78l.27-.11-.04.29c-.48,3.12-1.02,6.62-1.59,10.37l-.08-.19c.64.44,1.37.94,2.11,1.45l-.09-.03c.85.08,1.69-.25,2.34-.86.65-.6,1.16-1.39,1.55-2.25.78-1.71,1.27-3.64,1.55-5.61l.02-.13.12-.05c1.97-.76,4.12-1.58,6.33-2.42l.07-.03.07.02c3.27.85,6.76,1.77,10.35,2.71h.05s.05.05.05.05c2.03,1.59,4.59,2.69,7.16,3.65,2.6.93,5.34,1.69,8.15,2.27,2.82.58,5.74.89,8.7.98,2.96.08,5.99-.03,8.98-.5l-.2.18c.46-1.59.95-3.3,1.45-5.01,1.42-5.09,2.85-10.11,3.89-15.06.12-.62.23-1.24.28-1.85.01-.15.01-.3,0-.42,0-.06-.06-.1.04-.02.02.01.04.02.06.02h-.03s-.06-.01-.06-.01l-.12-.02-.93-.14c-1.24-.19-2.48-.38-3.7-.57-2.45-.39-4.87-.77-7.25-1.14-4.76-.77-9.37-1.52-13.79-2.37-1.11-.23-2.19-.42-3.29-.75-.98-.38-2.07-.25-3.11-.09-2.09.37-4.1,1.06-6,1.8h-.03s-.02.01-.02.01c-7.25,1.22-13.88,2.41-19.66,3.8-1.44.35-2.84.72-4.12,1.21-1.27.5-2.28,1.4-3.27,2.21-1.96,1.66-3.66,3.3-5.19,4.78-3.06,2.97-5.38,5.37-6.98,7-.78.8-1.39,1.43-1.81,1.86-.41.42-.63.63-.63.63,0,0,.19-.24.59-.67.41-.45,1-1.08,1.77-1.91,1.56-1.66,3.86-4.09,6.9-7.09,1.52-1.5,3.21-3.15,5.17-4.83.49-.42,1-.84,1.54-1.24.53-.41,1.14-.79,1.8-1.04,1.32-.5,2.71-.89,4.16-1.24,5.8-1.42,12.42-2.64,19.67-3.88h-.05c1.93-.75,3.93-1.44,6.09-1.83,1.06-.16,2.24-.32,3.34.11,1.01.31,2.13.5,3.22.73,4.41.83,9.02,1.58,13.78,2.34,2.38.37,4.8.75,7.24,1.13,1.23.19,2.46.37,3.7.56l.93.14.12.02h.06s.03.01.03.01c.04,0,.07.02.11.04.23.17.19.31.22.4.02.2.02.36,0,.53-.05.66-.17,1.28-.29,1.91-1.04,5-2.47,10-3.9,15.11-.5,1.72-.99,3.43-1.45,5.02l-.05.16-.16.02c-3.06.48-6.09.59-9.09.5-2.99-.1-5.94-.41-8.78-1-2.84-.59-5.59-1.35-8.22-2.3-1.31-.48-2.59-1.01-3.82-1.62-1.23-.62-2.41-1.26-3.49-2.14l.1.05c-3.59-.95-7.08-1.87-10.34-2.73h.14c-2.21.83-4.36,1.65-6.33,2.4l.14-.18c-.29,2.02-.79,3.96-1.61,5.74-.4.88-.94,1.72-1.65,2.37-.7.66-1.69,1.05-2.65.95h-.05s-.04-.03-.04-.03c-.74-.51-1.46-1.02-2.1-1.46l-.1-.07.02-.12c.6-3.75,1.15-7.25,1.65-10.36l.23.18c-2.41.99-4.65,1.91-6.65,2.73l.06-.05c-1.59,2.25-3.25,4.1-4.99,5.38-.87.63-1.76,1.12-2.67,1.31-.92.19-1.77-.08-2.43-.38-.68-.3-1.22-.71-1.55-1.18-.34-.46-.46-.95-.49-1.33-.04-.77.18-1.13.18-1.13Z"></path></g><path class="cls-3" d="M221.18,408.03s-.37.02-1.02-.03c-.65-.05-1.6-.14-2.76-.26-1.21-.13-2.58-.29-4.08-.45-.39-.05-.78-.09-1.18-.14-.4-.06-.75-.03-1.17.02-.81.11-1.66.31-2.52.52-3.37.98-6.75,1.63-8.05,3.63-.69.91-1.01,1.8-1.2,2.42-.18.62-.23.98-.27.98-.03,0-.05-.37.07-1.03.13-.65.41-1.59,1.1-2.59.35-.49.8-.99,1.37-1.41.57-.41,1.28-.76,2.01-1.02,1.46-.53,3.09-1.04,4.83-1.49.87-.22,1.73-.41,2.58-.52.41-.06.89-.08,1.29-.01.4.05.79.11,1.18.16,1.5.21,2.87.4,4.07.57,1.16.17,2.09.31,2.74.43s1,.19,1,.23Z"></path><path class="cls-3" d="M185.08,415.43s.37-.43,1.11-1.12c.75-.69,1.85-1.66,3.24-2.82,1.4-1.16,3.08-2.52,5.02-3.93.98-.7,2.02-1.42,3.14-2.1.57-.33,1.16-.66,1.79-.94.65-.28,1.31-.45,1.98-.64,5.37-1.48,10.4-1.87,13.98-2.4,1.73-.21,3.16-.39,4.26-.53,1.01-.11,1.57-.16,1.57-.12,0,.04-.55.15-1.54.32-1.09.18-2.52.41-4.24.69-3.57.63-8.58,1.08-13.89,2.54-.66.18-1.33.36-1.92.61-.6.26-1.18.57-1.73.9-1.11.66-2.15,1.36-3.12,2.05-1.95,1.38-3.65,2.7-5.07,3.82-1.35,1.09-2.48,2-3.34,2.69-.78.64-1.22,1-1.24.97Z"></path></g><g><path class="cls-11" d="M352.61,321.5s-7.07,9.71-12.68,21.38c-4.8,10-20.35,44.05-20.35,44.05l-63.33,3.32.93,24.47s61.16,21.79,74.86,17.59c13.69-4.2,28.28-19.99,28.28-19.99l6.55-103.2s-5.43-1.02-14.27,12.39Z"></path><path class="cls-11" d="M365.85,309.35s-16.24,36.83-18.61,52.43c-4.71,30.97-6.29,50.36-6.29,50.36l-5.52,47.93h108.15s3.58-88.83,1.28-118.62c-1.72-22.31-18.81-36.21-25.81-43.85-.42-.46-2.35-6.71-2.35-6.71l-50.4,12.91-.46,5.55Z"></path><path class="cls-8" d="M360.62,314.94s-.03.12-.12.35c-.1.25-.24.58-.41,1-.38.91-.92,2.2-1.62,3.85-1.39,3.35-3.4,8.2-5.41,14.35-2.03,6.15-4.02,13.61-5.59,22.03-1.61,8.41-2.91,17.75-4,27.57-1.99,19.68-3.8,37.49-5.11,50.41-.67,6.43-1.21,11.64-1.59,15.27-.2,1.78-.35,3.17-.46,4.15-.06.45-.1.81-.13,1.08-.03.24-.05.37-.06.37,0,0,0-.13,0-.37.02-.27.05-.63.08-1.08.09-.98.21-2.38.36-4.16.34-3.64.83-8.86,1.43-15.29,1.25-12.91,2.9-30.74,4.95-50.43,1.09-9.84,2.41-19.18,4.05-27.6,1.6-8.43,3.63-15.91,5.71-22.06,2.07-6.15,4.13-10.99,5.58-14.32.72-1.67,1.31-2.94,1.71-3.81.19-.41.35-.74.46-.98.11-.22.16-.33.17-.33Z"></path><g class="cls-13"><path class="cls-1" d="M416.81,372.92c-1-9.81-5.4-19.66-13.48-25.32l-65.94,94.17c11.64,6.28,24.57,12.76,37.5,9.99,6.96-1.49,13.14-5.59,18.16-10.64,10.43-10.49,16.09-24.78,20.06-39.02,2.65-9.5,4.69-19.37,3.7-29.18Z"></path></g><g><path class="cls-11" d="M424.28,361.55c-8.22,29.07-26.71,64.55-32.38,71.67-11.09,13.92-25.75,16.93-34.5,16.93-7.44,0-70.32-12.25-88.96-15.91-3.15-.62-5.61-3.06-6.27-6.19l-.16-.77-8.39-2.26,4.47-22.51.89-1.25,89.93,2.83h0l26.16-72.87c.49-.83,8.05-25.28,28.54-24.17"></path><path class="cls-8" d="M403.61,307.05s-.23,0-.68,0c-.45,0-1.12-.04-2,.05-1.76.1-4.4.46-7.56,1.8-3.13,1.36-6.68,3.81-9.87,7.61-3.22,3.78-6.05,8.77-8.3,14.78v-.02c-6.6,18.46-15.57,43.53-26.07,72.89l-.06.16h-.17c-26.76-.84-57.34-1.79-89.93-2.8l.22-.11c-.28.39-.58.82-.89,1.25l.04-.1c-1.29,6.51-2.67,13.44-4.05,20.44-.14.71-.28,1.42-.41,2.07l-.19-.3c2.91.78,5.73,1.54,8.39,2.26l.16.04.02.15c.29,1.87,1.1,3.6,2.47,4.85.67.62,1.45,1.13,2.3,1.47.84.36,1.75.5,2.69.69,3.7.72,7.37,1.44,11.01,2.15,7.29,1.4,14.46,2.78,21.5,4.14,14.09,2.67,27.67,5.21,40.61,7.4,3.24.54,6.44,1.05,9.6,1.5,1.58.2,3.16.42,4.71.49,1.56.02,3.12-.06,4.66-.23,6.15-.66,11.96-2.6,17-5.45,5.06-2.85,9.28-6.66,12.68-10.82,1.68-2.09,3.03-4.37,4.36-6.58,1.31-2.23,2.55-4.43,3.72-6.61,9.31-17.43,15.41-32.2,19.28-42.49,1.9-5.16,3.26-9.21,4.12-11.97.42-1.37.75-2.42.97-3.14.22-.71.35-1.07.35-1.07,0,0-.09.37-.3,1.08-.21.72-.52,1.78-.92,3.16-.83,2.77-2.15,6.83-4.03,12.01-3.82,10.32-9.87,25.12-19.15,42.59-1.17,2.18-2.4,4.39-3.71,6.63-1.34,2.22-2.68,4.51-4.38,6.64-3.42,4.2-7.68,8.05-12.78,10.94-5.09,2.89-10.94,4.86-17.16,5.53-1.55.18-3.13.26-4.71.24-1.6-.07-3.17-.29-4.76-.49-3.17-.44-6.37-.96-9.62-1.49-12.96-2.18-26.54-4.71-40.63-7.37-7.04-1.35-14.22-2.73-21.5-4.13-3.64-.71-7.31-1.43-11.01-2.15-.91-.18-1.88-.33-2.78-.71-.91-.37-1.74-.91-2.45-1.57-1.46-1.31-2.34-3.23-2.63-5.12l.19.2c-2.66-.72-5.48-1.47-8.39-2.26l-.24-.06.05-.24c.13-.65.27-1.36.41-2.07,1.39-7,2.76-13.93,4.06-20.43v-.05s.04-.05.04-.05c.31-.43.61-.86.89-1.25l.08-.11h.14c32.59,1.04,63.17,2.01,89.93,2.87l-.22.15c10.57-29.34,19.59-54.39,26.24-72.84v-.03c2.24-5.94,5.14-11.01,8.39-14.78,3.23-3.81,6.82-6.27,9.98-7.61,3.19-1.32,5.85-1.65,7.61-1.73.89-.07,1.56-.01,2.01,0,.45.01.68.03.68.03Z"></path></g><path class="cls-8" d="M329.1,398.32c-.15.08-1.4-3.25-4.34-6.36-2.9-3.15-6.13-4.63-6.04-4.78.02-.05.86.24,2.09.95,1.23.71,2.84,1.88,4.33,3.47,1.48,1.6,2.54,3.28,3.16,4.56.62,1.28.85,2.13.8,2.15Z"></path><path class="cls-8" d="M359.79,421.72c-.09.01-.26-1.15-.79-2.97-.52-1.81-1.46-4.26-2.95-6.72-1.5-2.45-3.25-4.41-4.63-5.7-1.38-1.29-2.33-1.98-2.28-2.05.02-.03.28.12.73.41.45.29,1.07.75,1.8,1.37,1.46,1.24,3.29,3.19,4.83,5.7,1.53,2.51,2.43,5.03,2.86,6.9.22.93.35,1.7.4,2.23.05.53.07.83.03.83Z"></path><g class="cls-13"><path class="cls-1" d="M335.8,403.52l5.23.19c.84-20.54,5.08-41.02,8.7-61.26-9.23,18.85-11.65,40.2-13.93,61.07Z"></path></g><path class="cls-8" d="M417.3,297.6s-.17.08-.49.17c-.39.11-.86.24-1.44.39-1.33.35-3.12.83-5.3,1.41-4.48,1.19-10.65,2.9-17.5,4.62-6.86,1.73-13.13,3.07-17.71,3.82-2.29.38-4.15.64-5.44.78-.6.06-1.09.11-1.49.15-.34.03-.52.03-.52.02,0-.02.17-.06.51-.12.4-.07.88-.15,1.47-.25,1.28-.19,3.13-.51,5.4-.94,4.55-.84,10.8-2.23,17.65-3.96,6.85-1.73,13.04-3.38,17.54-4.48,2.25-.56,4.08-.98,5.35-1.25.59-.12,1.07-.22,1.46-.3.34-.06.51-.09.52-.07Z"></path></g></g></g></g></svg>